/* XPM */
static char *d00220c195104e29bb09daee8f5e657fM1kdzYBl8v5nAfPh[] = {
/* columns rows colors chars-per-pixel */
"64 64 7 1 ",
"  c #10141F",
". c #151D28",
"X c #19332D",
"o c #25562E",
"O c #468232",
"+ c #75A743",
"@ c #C7CFCC",
/* pixels */
"................................................................",
"OOOOOOOOOOOOOOOOOOOOOOOOOOOOOOOOOOOOOOOOOOOOOOOOOOOOOOOOOOOOOOOO",
"OOOOOOOOOOOOOOOOOOOOOOOOOOOOOOOOOOOOOOOOOOOOOOOOOOOOOOOOOOOOOOOO",
"OOOOOOOOOOOOOOOO++++OOOOOOOOOOOOO+++OOOOOOOOOOOOOOOOOOOOOOOOOOOO",
"OOOOOOOOOOOOOOOOO++OOOOOOOOOOOOOOO+OOOOOOOOOOOOOOOOOOOO+OOOOOOOO",
"OOOOOOOOOOOOOOOO.....OOOOOOOOOOOOOOOOOOOOOOOOOOOOOOO+++++OOOOOOO",
"OOOOO++++OOOOO..XXXXX.OOOOOOOOOOOOOOOOOOOOOOOOOOOOOOO++++++OOOOO",
"OOO+++++OOOO..XXX....X.OOOOOOOO+OOOOOOOOOOOOO++OOOOOOOO++OOOOOOO",
"OO++++OOOOO.XXXoooooo..OOOOOOOO++OOOOOOOOOOOOOOOOOOOOOOOOOOOOOOO",
"OOOOOOOOOOO.XXooooooooo.OOOOOOOOO+OOOOOOOOOOOO   OOOOOOOOOOOOOOO",
"OOOOOOOOOO.XXXo.....ooo.OOOOOOOOOOOOOOOO++++  ooo   OOOOOOOOOOOO",
"OOOOOOOOOO.XXo.OOO++..oo.OOOOOOOOOOOOOOOOOO oooooooo OOOOOOOOOOO",
"OOOOO.OOO.ooo.OOOOOOOO..OOOOOOOOOOOOOOO++O oo....ooo OOOOOOOOOOO",
"OOOO.X...ooo.OOOOOOOOOOOOOOOOOOOOOOOOOOO+  oooXXX.oo O  OOOO+OOO",
"OOOO.Xoooooo.OOOOOOOOOO++++++OOOOOOOOOOOO+ ooooooX.oo oo   +++OO",
"OOO.Xooooooo.OOOOOOOOOOO+++OOOOOOOOOOOOOOOO   oooooo oooooo +++O",
"OO.XX..ooooo.OOOOOOOOOOOOOOOOO+OOOOOOOOOOOOOOO oooooooo..oo ++OO",
"OO.XX.O. oooo.OOOOOOOO   OOOOOOOOOOOOOOOOOOOOOO oooooooooooo OOO",
"OOO..OOOO oooo.OOOOOO ooo  OOOOOOOO     OOOOOOOO oooXXX  ooo OOO",
"OOO++OOOOO ooo.OOO++ oooooo OOOOOO ooooo OOOOO++ ooo   OO  o OOO",
"OOOOO+++OO oooo.++O oooo.ooo ++++ ooooooo OOOOOO oo OOOOOOO OOOO",
"OOOOOOOOOOO ooo.OO oooo.Xoooo OOO ooooo.oo OOOO ooo OOOOOOOOOOOO",
".OOOOOO..OO ooo..O ooo.Xooooo O.. oooooX.oo OOO..o OOOO..OOOOOO.",
"@.OOOO.@@.O ooo@@. ooo.Xooooo .@@ oooooX.ooo O.@@o OOO.@@.OOOO.@",
"@.OOOO.@@.O oo.@@. ooo.Xooooo .@@  ooooX.ooo O.@@.OOOO.@@.OOOO.@",
"@......@@......@@. Xoo.Xoooo ..@@.  ooo.ooo ...@@......@@......@",
"@@@@@@@@@@@@@@@@@@ XXo.Xooo @@@@@@@@ oo.ooo @@@@@@@@@@@@@@@@@@@@",
"@@@@@@@@@@@@@@@@@@ XXoooooo @@@@@@@@ oooooo @@@@@@@@@@@@@@@@@@@@",
"@......@@......@@..XXooooo ....@@... ooooo.....@@......@@......@",
"@.OOOO.@@.O oo.@@.O XXoooo ooo.@@.OO oooo.OOOo.@@.OOOO.@@.OOOO.@",
"@.OOOO.@@.O oo.@@.OO Xooo Oooo.@@.O+ ooo .OOOo.@@.OOOO.@@.OOOO.@",
"@.++OO.@@.O oo.@@.OO XXoo OOoo.@@.+O oo @.OOOo.@@.OOOO.@@.OO++.@",
"@.+++O.@@.O ooo @.O+O XXo OOOo.@@.OOO  @@.OOOo.@@.OOO+.@@.OOOO.@",
"@.OOOO.@@.O oooo .OOOO XX OOOo.@@.OOOO.@@.OOoo.@@.O++O.@@.OOOO.@",
"@......@@....ooo ......   .....@@......@@......@@......@@......@",
"@@@@@@@@@@@@@ oo @@@@@@@ @@@@@@@@@@@@@@@@@@@@@@@@@@@@@@@@@@@@@@@",
"@@@@@@@@@@@@@ oo @@@@@@@@@@@@@@@@@@@@@@@@@@@@@@@@@@@@@@@@@@@@@@@",
"@.....  @.... oo ......@@......@@......@@......@@......@@......@",
"@.OOOO.o .OOO oo .OOOO.@@.O oo.@@.OOOO.@@.oo O.@@.OOOO.@@.OOOO.@",
"@.OOO ooo.OOO oo .OOOO.@@. ooo.@@.OOOO.@@.o OO.@@.OOOO.@@.OOOO.@",
"@.OO+ Xooo  Oooo .OOOO.@@.ooo .@@.OOO .@@. OOO.@@.OOOO.@@.OOOO.@",
"@.OO+ XXoooo ooo .OOO .@@.oo O.@@.O  o.@@.OOOO.@@.OOOO.@@.OOOO.@",
"@.OOO XXXoooooo @.OO o.@@.o OO.@@  ooo.@@.OOOO.@@.OOOO.@@.OOOO.@",
"@.OOO+.XXXooooo @.O oo.@@. OOO.  oooo .@@.OOOO.@@.OOOO.@@.OOOO.@",
"@.OOOO. XXXooo.@@. ooo.@@.OO+  XXoo  O.@@.OOOO.@@.OOOO.@@.OOOO.@",
"@.OOOO.@ XXXXo.@@.ooo .@@.O  XXoo  OOO.@@.OOO+.@@.OOOO.@@.OOOO.@",
"@.OOOO.@@.XXX .@@.ooo .@@. XXooo .OOOO.@@.OO++.@@.+OOO.@@.OOOO.@",
"@.O++O.@@.   O.@@.oo O.@@. Xoo. @.OOOO.@@.O+++.@@.++OO.@@.OOOO.@",
"@.OOO+.@@.OOOO.@@.oo O.@@.ooo  @@.OOOO.@@.OOOO.@@.+OOO.@@.OOO+.@",
"@.OOOO.@@.OOOO.@@.oo O.@@.oo O.@@.OOOO.@@.OOOO.@@.OOOO.@@.OO++.@",
"@.+OOO.@@.OOOO.@@.ooo .@@.o OO.@@.OOOO.@@.OOOO.@@.OOOO.@@.O+++.@",
"@.+OOO.@@.OOOO.@@.ooo .@@.o OO.@@.OOOO.@@.OOOO.@@.OOOO.@@.OOOO.@",
"@.OOOO.@@.OOOO.@@.Xooo.@@.o OO.@@.OOOO.@@.OOOO.@@.OOOO.@@.OOOO.@",
"@.OOOO.@@.OOOO.@@.Xooo.@@.o OO.@@.OOOO.@@.OOOO.@@.OOOO.@@.OOOO.@",
"@.OOOO.@@.OOOO.@@.XXoo.@@.o OO.@@.O++O.@@.OOOO.@@.OOOO.@@.OOOO.@",
"@.OOOO.@@.OOOO.@@. Xoo.@@.oo O.@@.+OOO.@@.OOOO.@@.OOOO.@@.OOOO.@",
"@.OOOO.@@.OOOO.@@. XXo.@@.oo O.@@.OOOO.@@.OOO+.@@.OOOO.@@.OOOO.@",
"@.OOOO.@@.OOOO.@@.O Xo.@@.oo O.@@.OOOO.@@.OOOO.@@.OOOO.@@.OOOO.@",
"@.OOOO.@@.OOOO.@@.O Xo.@@.oo O.@@.OOOO.@@.O++O.@@.O++O.@@.OO+O.@",
"@.OOOO.@@.OOOO.@@.O Xo.@@.ooo .@@.OOOO.@@.OOOO.@@.OOOO.@@.++++.@",
"@.OOOO.@@.O++O.@@.OO o.@@.ooo .@@.OOOO.@@.OOOO.@@.OOOO.@@.O++O.@",
"@.OOOO.@@.OOOO.@@.OO o.@@.ooo .@@.OOOO.@@.OOOO.@@.OOOO.@@.OOOO.@",
"@.OOOO.@@.OOOO.@@.OO o.@@.oooo.@@.OOOO.@@.OOOO.@@.OOOO.@@.OOOO.@",
"@.OOOO.@@.OOOO.@@.OO o.@@.oooo.@@.OOOO.@@.OOOO.@@.OOOO.@@.OOOO.@"
};
